<?xml version="1.0" encoding="UTF-8" standalone="no"?>
<!-- Uploaded to: SVG Repo, www.svgrepo.com, Transformed by: SVG Repo Mixer Tools -->

<svg
   fill="#e0e0e0"
   height="16"
   width="16"
   version="1.1"
   id="Layer_1"
   viewBox="0 0 634.95125 634.95125"
   xml:space="preserve"
   stroke="#e0e0e0"
   stroke-width="0.00507961"
   sodipodi:docname="brain.svg"
   inkscape:version="1.3.2 (091e20e, 2023-11-25, custom)"
   xmlns:inkscape="http://www.inkscape.org/namespaces/inkscape"
   xmlns:sodipodi="http://sodipodi.sourceforge.net/DTD/sodipodi-0.dtd"
   xmlns="http://www.w3.org/2000/svg"
   xmlns:svg="http://www.w3.org/2000/svg"><defs
   id="defs4" /><sodipodi:namedview
   id="namedview4"
   pagecolor="#505050"
   bordercolor="#ffffff"
   borderopacity="1"
   inkscape:showpageshadow="0"
   inkscape:pageopacity="0"
   inkscape:pagecheckerboard="1"
   inkscape:deskcolor="#505050"
   inkscape:zoom="0.59"
   inkscape:cx="433.89831"
   inkscape:cy="427.9661"
   inkscape:window-width="1920"
   inkscape:window-height="991"
   inkscape:window-x="-9"
   inkscape:window-y="-9"
   inkscape:window-maximized="1"
   inkscape:current-layer="Layer_1" />





<path
   d="m 392.25614,304.21814 c -20.10001,-7.9 -34.89999,-24.40002 -40.60001,-45.2 -1.19999,-4.3 -4.3,-7.8 -8.5,-9.40001 -4.19999,-1.59999 -8.8,-1.2 -12.60001,1.19999 -17.8,11.09999 -40.40001,13 -60.40001,5.09999 -7.3,-2.90001 -15.5,0.7 -18.3,7.90001 -2.90001,7.19998 0.69999,15.4 7.89999,18.30001 22.90001,9.09999 48.30002,9 70.50002,0.19999 10.39999,21.80001 28.5,38.80001 51.60001,48 6.39999,2.5 15.3,-0.8 18.3,-7.89999 3.10001,-7.10001 -0.60001,-15.3 -7.89999,-18.19999 z"
   id="path2"
   style="display:inline;stroke-width:12.699;stroke-dasharray:none"
   inkscape:label="inner_path" /><path
   d="m 571.45614,293.61813 c 0,-21 -12.70002,-39.30001 -31,-47.40002 2.5,-14.90001 -1.60001,-30.59998 -11.80002,-42.40001 -10.3,-11.9 -25.69999,-18.3 -41.39999,-17.59999 -3.3,-11.8 -10.8,-22.3 -21.39999,-29.3 -13.10001,-8.59999 -30,-10.69998 -44.60001,-5.9 -8.69999,-16.39998 -25.89999,-27.39998 -45.69999,-27.39998 -10.10001,0 -19.80001,2.9 -28.10001,8.29998 -9.3,-7.99998 -21.3,-12.59998 -33.8,-12.59998 -14.7,0 -28.5,6.29999 -38.09999,16.79999 -7,-3.5 -14.80001,-5.30001 -22.90001,-5.30001 -16.5,0 -31.7,7.90001 -41.2,20.60001 -5.4,-2.00001 -11.09999,-3.00001 -17,-3.00001 -20,0 -37.7,11.40001 -46.20001,28.5 -14.59999,-1.3 -29.2,3.9 -39.9,14.09999 -9.299995,8.9 -14.899995,20.9 -15.799995,33.5 -19.1,9.30001 -31,29.7 -28.8,51.60001 2.1,21.69999 17.3,39.1 37.399995,44.69999 -0.1,4.80001 0.4,9.5 1.7,14.2 4.3,16.60001 16.7,29.8 32.40001,35.5 2.6,34.5 27,63.7 61.60001,71.90001 23.3,5.5 47.9,0 66.4,-13.89999 9.6,12 33.19999,25.8 52.59999,25.3 20.40001,-0.5 39.20002,-9.10001 51.70002,-24.3 l 73.1,73.8 c 16.8,14.2 40.6,16.10001 56.8,5.80001 15.1,-9.5 22.49999,-27.60001 19.49999,-45.2 l -11.49999,-66 c 1.7,-0.10001 3.3,-0.19999 5,-0.5 21.99999,-3.10001 39.99999,-20.60001 43.7,-42.5 1.19998,-7.39999 0.9,-14.8 -1,-21.8 11.4,-9.7 18.29999,-24.10001 18.29999,-39.5 z m -41.80002,21.19999 c -3.60001,1.7 -6.3,4.80001 -7.49999,8.5 -1.2,3.80001 -0.4,7.7 1.19999,11.2 9.69999,21.3 -7.19999,33.5 -17,34.8 -4.5,0.60001 -25.19999,1.2 -32.19999,-15.3 -2.80001,-6.60001 -1.2,-13.80001 3.3,-19.30001 5,-6 4.10001,-14.89999 -1.89999,-19.89999 -6,-5 -14.9,-4.10001 -19.9,1.89999 -10.9,13.2 -13.9,30.7 -8.1,46.80001 4.8,13.39999 15,23.5 28,28.39999 l 13.39999,76.59999 c 1.2,6.60001 -1.7,13.2 -7.2,16.8 -6.5,4.30001 -15.69999,3.4 -21.1,-2.19999 L 374.85612,396.5181 c -2.69999,-2.7 -7.10001,-4.5 -12.8,-3.89999 -4.7,0.5 -8.5,4.1 -10.30001,8.5 -7,17 -26,27.19999 -44.10001,23.3 -11.69999,-2.5 -21.39999,-10.2 -26.69999,-20.8 0,0 -2.10001,-22.30001 17.10001,-33.2 8.8,-5 19,-7.10001 28.69999,-4.39999 7.5,2.10001 15.30001,-2.30001 17.39999,-9.80001 2.10001,-7.5 -2.3,-15.3 -9.8,-17.39999 -17.5,-4.89999 -36.5,-2.19999 -51.7,7.80001 -30,19.89999 -29.6,52.5 -29.6,52.5 -12.59999,13.5 -31.59999,19.60001 -49.79999,15.39999 -25.09999,-5.89999 -41.9,-28.80001 -39.9,-54.5 0.6,-7.7 -5.1,-14.39999 -12.79999,-15.10001 -9.79999,-0.89999 -18.09999,-7.89999 -20.5,-17.39999 -0.79999,-3.10001 -0.9,-6.2 -0.4,-9.30001 0,0 19.9,-3.39999 38.79999,-25.5 0,0 16,-6.1 25.9,9.4 2.8,4.39999 3,9.8 1,14.6 -3,7.2 0.4,15.5 7.6,18.5 6.8,2.7 15.59999,-0.89999 18.5,-7.6 5.5,-13.10001 4.4,-27.60001 -2.80001,-39.80001 -7.19999,-12.19999 -19.5,-20.1 -33.6,-21.6 l -6.8,-0.7 c 0.8,-11.89999 -2.3,-23.8 -9.2,-33.79999 -4.4,-6.40001 -13.19999,-8.09999 -19.59998,-3.69999 -6.4,4.40001 -8,13.1 -3.70001,19.6 10.79999,16.19998 -1.7,33.99999 -10.29999,36.99999 l -20.79999,9.8 c -11.90001,-0.2 -21.700005,-9.10001 -22.900005,-21 -1.2,-11.8 6.7,-22.6 18.299995,-25.2 7.3,-1.59998 12.1,-8.59998 10.9,-16 -1.2,-7.69999 1.4,-15.40001 6.90001,-20.69999 6.4,-6.2 16.2,-8.1 24.59999,-4.9 3.9,1.5 8.29999,1.19999 12,-0.90002 3.69999,-2.09998 6.19999,-5.59998 7,-9.8 2,-11.2 11.69999,-19.3 23.1,-19.3 5.19999,0 10.09999,1.7 14.19999,4.8 3.6,2.8 8.30001,3.6 12.7,2.3 4.3,-1.3 7.8,-4.59998 9.3,-8.9 3.30001,-9.49999 12.2,-15.9 22.2,-15.9 4,0 7.8,1.1 11.19999,3 0.2,17.5 -11.8,32.9 -29.3,36.3 -7.6,1.5 -12.9,9 -11.1,16.6 2.1,9 9.3,12.5 16.6,11.1 31,-6.1 52.7,-33.4 52.2,-64.5 3.8,-8.5 12.2,-13.89999 21.4,-13.89999 8.4,0 16,4.39999 20.3,11.69999 2.4,4 6.5,6.6 11.2,6.9 4.6,0.4 9.1,-1.7 12,-5.3 4.5,-5.7 11.2,-8.9 18.4,-8.9 10.1,0 18.6,6.3 21.9,15.3 l -4.5,4.5 c -13.1,13.1 -18.9,31 -15.9,49.3 3,18.3 14.1,33.5 30.6,41.8 5.6,2.80001 15.1,1.1 18.9,-6.3 3.7,-6.9 0.7,-15.4 -6.3,-18.9 -8.3,-4.2 -13.9,-11.9 -15.4,-21.1 -3.6,-22.4 17.5,-34.3 17.5,-34.3 7.7,-6.5 19.5,-7.3 28,-1.7 7.2,4.7 11.2,13 10.5,21.6 -0.4,4.9 1.8,9.7 5.8,12.6 4,2.9 9.2,3.5 13.8,1.6 9.2,-3.9 20.4,-1.4 26.9,6.1 6.4,7.4 7.5,18.2 2.6,26.9 -2.4,4.2 -2.4,9.4 -0.1,13.7 2.3,4.3 6.7,7.1 11.5,7.4 12.3,0.8 22,11.1 22,23.4 -0.4,8.9 -5.7,17.2 -13.99998,21.00002 z"
   id="path1"
   style="display:inline;stroke-width:12.699;stroke-dasharray:none"
   inkscape:label="outer_path" />

<circle
   style="display:none;fill:#000000;stroke-width:12.897"
   id="path5"
   cx="394.42316"
   cy="379.35648"
   r="203.8387" /><circle
   style="display:none;fill:#000000;stroke-width:12.897"
   id="path5-1"
   cx="392.82816"
   cy="379.8063"
   r="203.8387" /><g
   style="display:none;fill:none;stroke-width:0.00024"
   id="g1"
   transform="matrix(21.165042,0,0,21.165042,141.18655,124.29977)"><g
     id="SVGRepo_bgCarrier"
     stroke-width="0" /><g
     id="SVGRepo_tracerCarrier"
     stroke-linecap="round"
     stroke-linejoin="round"
     stroke="#ffe345"
     stroke-width="1.2"><path
       d="M 18.43,4.25 C 18.2319,4.25259 18.0426,4.33244 17.9025,4.47253 17.7625,4.61263 17.6826,4.80189 17.68,5 V 7.43 L 16.84,6.59 C 15.971,5.71363 14.8924,5.07396 13.7067,4.73172 12.5209,4.38948 11.2673,4.35604 10.065,4.63458 8.86267,4.91312 7.7515,5.49439 6.83703,6.32318 5.92255,7.15198 5.23512,8.20078 4.84001,9.37 4.79887,9.46531 4.77824,9.56821 4.77947,9.67202 4.7807,9.77583 4.80375,9.87821 4.84714,9.97252 4.89052,10.0668 4.95326,10.151 5.03129,10.2194 c 0.07802,0.0685 0.16958,0.1198 0.26872,0.1506 0.08272,0.0144 0.16729,0.0144 0.25,0 0.15645,-0.0016 0.3086,-0.0514 0.43567,-0.1427 C 6.11275,10.136 6.20856,10.0078 6.26001,9.86 6.53938,9.0301 7.00847,8.27681 7.63001,7.66 8.70957,6.58464 10.1713,5.98085 11.695,5.98085 c 1.5238,0 2.9855,0.60379 4.065,1.67915 L 16.6,8.5 H 14.19 C 13.9911,8.5 13.8003,8.57902 13.6597,8.71967 13.519,8.86032 13.44,9.05109 13.44,9.25 c 0,0.19891 0.079,0.38968 0.2197,0.53033 C 13.8003,9.92098 13.9911,10 14.19,10 h 4.24 C 18.5289,10.0013 18.627,9.98286 18.7186,9.94565 18.8102,9.90844 18.8934,9.85324 18.9633,9.78333 19.0333,9.71341 19.0885,9.6302 19.1257,9.5386 19.1629,9.44699 19.1814,9.34886 19.18,9.25 V 5 C 19.18,4.80109 19.101,4.61032 18.9603,4.46967 18.8197,4.32902 18.6289,4.25 18.43,4.25 Z"
       fill="#ffe345"
       id="path1-9" /><path
       d="m 18.68,13.68 c -0.0963,-0.0378 -0.1992,-0.0556 -0.3026,-0.0523 -0.1034,0.0034 -0.205,0.0278 -0.2987,0.0718 -0.0936,0.044 -0.1772,0.1067 -0.2458,0.1841 -0.0686,0.0775 -0.1206,0.1681 -0.1529,0.2664 -0.2794,0.8299 -0.7484,1.5832 -1.37,2.2 -1.0795,1.0754 -2.5412,1.6791 -4.065,1.6791 -1.5237,0 -2.98543,-0.6037 -4.06499,-1.6791 l -0.84,-0.84 h 2.47001 c 0.19888,0 0.38968,-0.079 0.53028,-0.2197 C 10.481,15.1497 10.56,14.9589 10.56,14.76 10.56,14.5611 10.481,14.3703 10.3403,14.2297 10.1997,14.089 10.0089,14.01 9.81002,14.01 H 5.57001 C 5.47115,14.0086 5.37302,14.0271 5.28142,14.0643 5.18982,14.1016 5.1066,14.1568 5.03669,14.2267 4.96677,14.2966 4.91158,14.3798 4.87436,14.4714 4.83715,14.563 4.81867,14.6611 4.82001,14.76 V 19 c 0,0.1989 0.07902,0.3897 0.21967,0.5303 0.14066,0.1407 0.33142,0.2197 0.53033,0.2197 0.19892,0 0.38968,-0.079 0.53033,-0.2197 C 6.241,19.3897 6.32001,19.1989 6.32001,19 v -2.43 l 0.84,0.84 c 0.869,0.8764 1.9476,1.516 3.13339,1.8583 1.1857,0.3422 2.4393,0.3756 3.6416,0.0971 1.2024,-0.2785 2.3135,-0.8598 3.228,-1.6886 0.9145,-0.8288 1.6019,-1.8776 1.997,-3.0468 0.0326,-0.0938 0.0461,-0.1932 0.0395,-0.2923 -0.0066,-0.0991 -0.0331,-0.1959 -0.0779,-0.2845 -0.0448,-0.0887 -0.107,-0.1674 -0.1829,-0.2315 C 18.8629,13.7576 18.7749,13.7094 18.68,13.68 Z"
       fill="#ffe345"
       id="path2-8" /></g><g
     id="SVGRepo_iconCarrier"><path
       d="M 18.43,4.25 C 18.2319,4.25259 18.0426,4.33244 17.9025,4.47253 17.7625,4.61263 17.6826,4.80189 17.68,5 V 7.43 L 16.84,6.59 C 15.971,5.71363 14.8924,5.07396 13.7067,4.73172 12.5209,4.38948 11.2673,4.35604 10.065,4.63458 8.86267,4.91312 7.7515,5.49439 6.83703,6.32318 5.92255,7.15198 5.23512,8.20078 4.84001,9.37 4.79887,9.46531 4.77824,9.56821 4.77947,9.67202 4.7807,9.77583 4.80375,9.87821 4.84714,9.97252 4.89052,10.0668 4.95326,10.151 5.03129,10.2194 c 0.07802,0.0685 0.16958,0.1198 0.26872,0.1506 0.08272,0.0144 0.16729,0.0144 0.25,0 0.15645,-0.0016 0.3086,-0.0514 0.43567,-0.1427 C 6.11275,10.136 6.20856,10.0078 6.26001,9.86 6.53938,9.0301 7.00847,8.27681 7.63001,7.66 8.70957,6.58464 10.1713,5.98085 11.695,5.98085 c 1.5238,0 2.9855,0.60379 4.065,1.67915 L 16.6,8.5 H 14.19 C 13.9911,8.5 13.8003,8.57902 13.6597,8.71967 13.519,8.86032 13.44,9.05109 13.44,9.25 c 0,0.19891 0.079,0.38968 0.2197,0.53033 C 13.8003,9.92098 13.9911,10 14.19,10 h 4.24 C 18.5289,10.0013 18.627,9.98286 18.7186,9.94565 18.8102,9.90844 18.8934,9.85324 18.9633,9.78333 19.0333,9.71341 19.0885,9.6302 19.1257,9.5386 19.1629,9.44699 19.1814,9.34886 19.18,9.25 V 5 C 19.18,4.80109 19.101,4.61032 18.9603,4.46967 18.8197,4.32902 18.6289,4.25 18.43,4.25 Z"
       fill="#ffe345"
       id="path3" /><path
       d="m 18.68,13.68 c -0.0963,-0.0378 -0.1992,-0.0556 -0.3026,-0.0523 -0.1034,0.0034 -0.205,0.0278 -0.2987,0.0718 -0.0936,0.044 -0.1772,0.1067 -0.2458,0.1841 -0.0686,0.0775 -0.1206,0.1681 -0.1529,0.2664 -0.2794,0.8299 -0.7484,1.5832 -1.37,2.2 -1.0795,1.0754 -2.5412,1.6791 -4.065,1.6791 -1.5237,0 -2.98543,-0.6037 -4.06499,-1.6791 l -0.84,-0.84 h 2.47001 c 0.19888,0 0.38968,-0.079 0.53028,-0.2197 C 10.481,15.1497 10.56,14.9589 10.56,14.76 10.56,14.5611 10.481,14.3703 10.3403,14.2297 10.1997,14.089 10.0089,14.01 9.81002,14.01 H 5.57001 C 5.47115,14.0086 5.37302,14.0271 5.28142,14.0643 5.18982,14.1016 5.1066,14.1568 5.03669,14.2267 4.96677,14.2966 4.91158,14.3798 4.87436,14.4714 4.83715,14.563 4.81867,14.6611 4.82001,14.76 V 19 c 0,0.1989 0.07902,0.3897 0.21967,0.5303 0.14066,0.1407 0.33142,0.2197 0.53033,0.2197 0.19892,0 0.38968,-0.079 0.53033,-0.2197 C 6.241,19.3897 6.32001,19.1989 6.32001,19 v -2.43 l 0.84,0.84 c 0.869,0.8764 1.9476,1.516 3.13339,1.8583 1.1857,0.3422 2.4393,0.3756 3.6416,0.0971 1.2024,-0.2785 2.3135,-0.8598 3.228,-1.6886 0.9145,-0.8288 1.6019,-1.8776 1.997,-3.0468 0.0326,-0.0938 0.0461,-0.1932 0.0395,-0.2923 -0.0066,-0.0991 -0.0331,-0.1959 -0.0779,-0.2845 -0.0448,-0.0887 -0.107,-0.1674 -0.1829,-0.2315 C 18.8629,13.7576 18.7749,13.7094 18.68,13.68 Z"
       fill="#ffe345"
       id="path4" /></g></g></svg>
