<?xml version="1.0" encoding="UTF-8" standalone="no"?>
<!-- Uploaded to: SVG Repo, www.svgrepo.com, Transformed by: SVG Repo Mixer Tools -->

<svg
   fill="#e0e0e0"
   height="16"
   width="16"
   version="1.1"
   id="Layer_1"
   viewBox="0 0 634.95125 634.95125"
   xml:space="preserve"
   stroke="#e0e0e0"
   stroke-width="0.00507961"
   sodipodi:docname="sync_brain.svg"
   inkscape:version="1.3.2 (091e20e, 2023-11-25, custom)"
   xmlns:inkscape="http://www.inkscape.org/namespaces/inkscape"
   xmlns:sodipodi="http://sodipodi.sourceforge.net/DTD/sodipodi-0.dtd"
   xmlns="http://www.w3.org/2000/svg"
   xmlns:svg="http://www.w3.org/2000/svg"><defs
   id="defs4" /><sodipodi:namedview
   id="namedview4"
   pagecolor="#505050"
   bordercolor="#ffffff"
   borderopacity="1"
   inkscape:showpageshadow="0"
   inkscape:pageopacity="0"
   inkscape:pagecheckerboard="1"
   inkscape:deskcolor="#505050"
   inkscape:zoom="0.59"
   inkscape:cx="434.74576"
   inkscape:cy="621.18644"
   inkscape:window-width="1920"
   inkscape:window-height="991"
   inkscape:window-x="-9"
   inkscape:window-y="-9"
   inkscape:window-maximized="1"
   inkscape:current-layer="Layer_1" />





<path
   id="path2"
   style="display:inline;stroke-width:12.699;stroke-dasharray:none"
   inkscape:label="inner_path"
   d="m 338.32609,248.66154 c -2.70702,-0.0625 -5.39447,0.65658 -7.76947,2.15658 -17.79998,11.09999 -40.40101,12.99944 -60.40101,5.09945 -7.29998,-2.89999 -15.4995,0.70094 -18.29946,7.90093 -2.90001,7.19999 0.69969,15.3995 7.89968,18.29949 22.89996,9.09999 48.3007,8.99967 70.50067,0.19966 0.16123,0.33795 0.34107,0.66393 0.50599,0.99956 a 203.8387,203.8387 0 0 1 23.73005,-16.06725 c -1.10291,-2.66005 -2.06063,-5.40194 -2.83618,-8.23204 -1.2,-4.3 -4.29992,-7.80026 -8.49991,-9.40025 -1.575,-0.6 -3.20612,-0.91865 -4.83036,-0.95613 z" /><path
   id="path1"
   style="display:inline;stroke-width:12.699;stroke-dasharray:none"
   inkscape:label="outer_path"
   d="m 313.656,119.31751 c -14.7,0 -28.49957,6.30018 -38.09954,16.80016 -7,-3.49998 -14.80043,-5.29911 -22.90041,-5.29911 -16.49999,0 -31.69991,7.89997 -41.19991,20.59996 -5.39999,-2 -11.09982,-2.9999 -16.99982,-2.9999 -19.99997,0 -37.70016,11.39964 -46.20016,28.49963 -14.59999,-1.30001 -29.20026,3.90038 -39.90024,14.10038 -9.299992,8.9 -14.899375,20.89989 -15.799374,33.49987 -19.09998,9.3 -31.00099,29.69973 -28.800992,51.59972 2.099998,21.69997 17.300138,39.09958 37.400116,44.69959 -0.1,4.79998 0.40023,9.50083 1.70023,14.20083 4.3,16.59998 16.6999,29.79899 32.39988,35.49898 2.6,34.49998 27.00023,63.70081 61.60021,71.90078 19.88194,4.69315 40.67761,1.31692 57.85497,-8.39326 a 203.8387,203.8387 0 0 1 21.34156,-82.35764 c -23.26851,19.90823 -22.9959,47.4502 -22.9959,47.4502 -12.59999,13.5 -31.6003,19.60005 -49.80028,15.40006 -25.09996,-5.89999 -41.90023,-28.79917 -39.90023,-54.49917 0.6,-7.69999 -5.09948,-14.39992 -12.79949,-15.09992 -9.79998,-0.89999 -18.10074,-7.90039 -20.50073,-17.40039 -0.80001,-3.10001 -0.89934,-6.19982 -0.39934,-9.29981 0,0 19.89901,-3.39976 38.79901,-25.49975 0,0 16.00031,-6.10095 25.9003,9.39903 2.8,4.39999 3.00077,9.80016 1.00079,14.60016 -3,7.2 0.39957,15.5004 7.59957,18.5004 6.80001,2.7 15.60042,-0.89958 18.50039,-7.59956 5.49999,-13.09999 4.39976,-27.60105 -2.80024,-39.80103 -7.19999,-12.2 -19.50034,-20.09951 -33.60034,-21.59951 l -6.79966,-0.70069 c 0.8,-11.9 -2.30062,-23.80001 -9.20061,-33.79999 -4.39999,-6.4 -13.19916,-8.09933 -19.59916,-3.69934 -6.4,4.4 -8.00057,13.10041 -3.70058,19.6004 10.8,16.19998 -1.69936,33.99956 -10.29935,36.99956 l -20.80085,9.79958 c -11.89998,-0.2 -21.699164,-9.09929 -22.899163,-20.99928 -1.199998,-11.79998 6.699505,-22.60087 18.299493,-25.20086 7.29999,-1.6 12.09958,-8.59905 10.89958,-15.99906 -1.2,-7.69998 1.40014,-15.4004 6.90013,-20.7004 6.39999,-6.19998 16.20064,-8.09979 24.60064,-4.89978 3.9,1.5 8.29959,1.19965 11.99959,-0.90034 3.7,-2.09999 6.20058,-5.59959 7.00058,-9.79957 2,-11.19999 11.69884,-19.30029 23.09883,-19.30029 5.19999,0 10.10085,1.70059 14.20083,4.80058 3.59999,2.8 8.30029,3.59922 12.70026,2.29922 4.29999,-1.30001 7.7998,-4.59926 9.2998,-8.89924 3.30001,-9.49999 12.19974,-15.90106 22.19973,-15.90106 4,0 7.7997,1.09989 11.1997,2.9999 0.2,17.49997 -11.79955,32.9001 -29.29953,36.3001 -7.59999,1.5 -12.90048,9.00049 -11.10049,16.60051 2.1,8.99999 9.30051,12.50048 16.60051,11.10049 30.99998,-6.1 52.69993,-33.40091 52.19993,-64.50088 3.8,-8.49999 12.19986,-13.89948 21.39985,-13.89948 8.39999,0 15.99984,4.39948 20.29983,11.69948 2.4,3.99998 6.4997,6.60013 11.1997,6.90012 4.60001,0.4 9.10083,-1.70035 12.00083,-5.30035 4.5,-5.7 11.19995,-8.89925 18.39995,-8.89925 10.09998,0 18.59962,6.29961 21.89961,15.29961 l -4.50047,4.50046 c -13.09998,13.09998 -18.89982,30.99926 -15.89982,49.29925 1.86014,11.34684 6.84668,21.4927 14.29136,29.55003 a 203.8387,203.8387 0 0 1 33.89425,-8.7467 c -1.29383,-1.70641 -2.94493,-3.18262 -4.98536,-4.20283 -8.29999,-4.2 -13.90005,-11.89974 -15.40005,-21.09973 -3.6,-22.39998 17.4996,-34.29977 17.4996,-34.29977 7.69999,-6.49998 19.50111,-7.30021 28.0011,-1.70023 7.2,4.7 11.19902,12.99951 10.49902,21.59951 -0.4,4.89999 1.80014,9.69981 5.80013,12.59981 4,2.9 9.20028,3.50102 13.80027,1.60102 9.19999,-3.9 20.39987,-1.40099 26.89986,6.099 5.67666,6.56364 7.16052,15.79601 4.00937,23.87144 a 203.8387,203.8387 0 0 1 53.80716,23.47336 c -5.43826,-10.35882 -14.20487,-18.75875 -25.01609,-23.54405 2.5,-14.89998 -1.59993,-30.60037 -11.79992,-42.40035 -10.29999,-11.89999 -25.70082,-18.30006 -41.40081,-17.60006 -3.3,-11.79999 -10.79985,-22.29953 -21.39984,-29.29952 -13.09999,-8.6 -29.99914,-10.70058 -44.59912,-5.90059 -8.69999,-16.39999 -25.90039,-27.39964 -45.70037,-27.39964 -10.09999,0 -19.80032,2.90026 -28.10032,8.30025 -9.29999,-7.99999 -21.3,-12.60106 -33.79996,-12.60105 z" />

<g
   style="display:inline;fill:none;stroke-width:0.00024"
   id="g1"
   transform="matrix(21.165042,0,0,21.165042,204.68166,187.79488)"><g
     id="SVGRepo_bgCarrier"
     stroke-width="0" /><g
     id="SVGRepo_tracerCarrier"
     stroke-linecap="round"
     stroke-linejoin="round"
     stroke="#ffe345"
     stroke-width="1.2"><path
       d="M 18.43,4.25 C 18.2319,4.25259 18.0426,4.33244 17.9025,4.47253 17.7625,4.61263 17.6826,4.80189 17.68,5 V 7.43 L 16.84,6.59 C 15.971,5.71363 14.8924,5.07396 13.7067,4.73172 12.5209,4.38948 11.2673,4.35604 10.065,4.63458 8.86267,4.91312 7.7515,5.49439 6.83703,6.32318 5.92255,7.15198 5.23512,8.20078 4.84001,9.37 4.79887,9.46531 4.77824,9.56821 4.77947,9.67202 4.7807,9.77583 4.80375,9.87821 4.84714,9.97252 4.89052,10.0668 4.95326,10.151 5.03129,10.2194 c 0.07802,0.0685 0.16958,0.1198 0.26872,0.1506 0.08272,0.0144 0.16729,0.0144 0.25,0 0.15645,-0.0016 0.3086,-0.0514 0.43567,-0.1427 C 6.11275,10.136 6.20856,10.0078 6.26001,9.86 6.53938,9.0301 7.00847,8.27681 7.63001,7.66 8.70957,6.58464 10.1713,5.98085 11.695,5.98085 c 1.5238,0 2.9855,0.60379 4.065,1.67915 L 16.6,8.5 H 14.19 C 13.9911,8.5 13.8003,8.57902 13.6597,8.71967 13.519,8.86032 13.44,9.05109 13.44,9.25 c 0,0.19891 0.079,0.38968 0.2197,0.53033 C 13.8003,9.92098 13.9911,10 14.19,10 h 4.24 C 18.5289,10.0013 18.627,9.98286 18.7186,9.94565 18.8102,9.90844 18.8934,9.85324 18.9633,9.78333 19.0333,9.71341 19.0885,9.6302 19.1257,9.5386 19.1629,9.44699 19.1814,9.34886 19.18,9.25 V 5 C 19.18,4.80109 19.101,4.61032 18.9603,4.46967 18.8197,4.32902 18.6289,4.25 18.43,4.25 Z"
       fill="#ffe345"
       id="path1-9" /><path
       d="m 18.68,13.68 c -0.0963,-0.0378 -0.1992,-0.0556 -0.3026,-0.0523 -0.1034,0.0034 -0.205,0.0278 -0.2987,0.0718 -0.0936,0.044 -0.1772,0.1067 -0.2458,0.1841 -0.0686,0.0775 -0.1206,0.1681 -0.1529,0.2664 -0.2794,0.8299 -0.7484,1.5832 -1.37,2.2 -1.0795,1.0754 -2.5412,1.6791 -4.065,1.6791 -1.5237,0 -2.98543,-0.6037 -4.06499,-1.6791 l -0.84,-0.84 h 2.47001 c 0.19888,0 0.38968,-0.079 0.53028,-0.2197 C 10.481,15.1497 10.56,14.9589 10.56,14.76 10.56,14.5611 10.481,14.3703 10.3403,14.2297 10.1997,14.089 10.0089,14.01 9.81002,14.01 H 5.57001 C 5.47115,14.0086 5.37302,14.0271 5.28142,14.0643 5.18982,14.1016 5.1066,14.1568 5.03669,14.2267 4.96677,14.2966 4.91158,14.3798 4.87436,14.4714 4.83715,14.563 4.81867,14.6611 4.82001,14.76 V 19 c 0,0.1989 0.07902,0.3897 0.21967,0.5303 0.14066,0.1407 0.33142,0.2197 0.53033,0.2197 0.19892,0 0.38968,-0.079 0.53033,-0.2197 C 6.241,19.3897 6.32001,19.1989 6.32001,19 v -2.43 l 0.84,0.84 c 0.869,0.8764 1.9476,1.516 3.13339,1.8583 1.1857,0.3422 2.4393,0.3756 3.6416,0.0971 1.2024,-0.2785 2.3135,-0.8598 3.228,-1.6886 0.9145,-0.8288 1.6019,-1.8776 1.997,-3.0468 0.0326,-0.0938 0.0461,-0.1932 0.0395,-0.2923 -0.0066,-0.0991 -0.0331,-0.1959 -0.0779,-0.2845 -0.0448,-0.0887 -0.107,-0.1674 -0.1829,-0.2315 C 18.8629,13.7576 18.7749,13.7094 18.68,13.68 Z"
       fill="#ffe345"
       id="path2-8" /></g><g
     id="SVGRepo_iconCarrier"><path
       d="M 18.43,4.25 C 18.2319,4.25259 18.0426,4.33244 17.9025,4.47253 17.7625,4.61263 17.6826,4.80189 17.68,5 V 7.43 L 16.84,6.59 C 15.971,5.71363 14.8924,5.07396 13.7067,4.73172 12.5209,4.38948 11.2673,4.35604 10.065,4.63458 8.86267,4.91312 7.7515,5.49439 6.83703,6.32318 5.92255,7.15198 5.23512,8.20078 4.84001,9.37 4.79887,9.46531 4.77824,9.56821 4.77947,9.67202 4.7807,9.77583 4.80375,9.87821 4.84714,9.97252 4.89052,10.0668 4.95326,10.151 5.03129,10.2194 c 0.07802,0.0685 0.16958,0.1198 0.26872,0.1506 0.08272,0.0144 0.16729,0.0144 0.25,0 0.15645,-0.0016 0.3086,-0.0514 0.43567,-0.1427 C 6.11275,10.136 6.20856,10.0078 6.26001,9.86 6.53938,9.0301 7.00847,8.27681 7.63001,7.66 8.70957,6.58464 10.1713,5.98085 11.695,5.98085 c 1.5238,0 2.9855,0.60379 4.065,1.67915 L 16.6,8.5 H 14.19 C 13.9911,8.5 13.8003,8.57902 13.6597,8.71967 13.519,8.86032 13.44,9.05109 13.44,9.25 c 0,0.19891 0.079,0.38968 0.2197,0.53033 C 13.8003,9.92098 13.9911,10 14.19,10 h 4.24 C 18.5289,10.0013 18.627,9.98286 18.7186,9.94565 18.8102,9.90844 18.8934,9.85324 18.9633,9.78333 19.0333,9.71341 19.0885,9.6302 19.1257,9.5386 19.1629,9.44699 19.1814,9.34886 19.18,9.25 V 5 C 19.18,4.80109 19.101,4.61032 18.9603,4.46967 18.8197,4.32902 18.6289,4.25 18.43,4.25 Z"
       fill="#ffe345"
       id="path3" /><path
       d="m 18.68,13.68 c -0.0963,-0.0378 -0.1992,-0.0556 -0.3026,-0.0523 -0.1034,0.0034 -0.205,0.0278 -0.2987,0.0718 -0.0936,0.044 -0.1772,0.1067 -0.2458,0.1841 -0.0686,0.0775 -0.1206,0.1681 -0.1529,0.2664 -0.2794,0.8299 -0.7484,1.5832 -1.37,2.2 -1.0795,1.0754 -2.5412,1.6791 -4.065,1.6791 -1.5237,0 -2.98543,-0.6037 -4.06499,-1.6791 l -0.84,-0.84 h 2.47001 c 0.19888,0 0.38968,-0.079 0.53028,-0.2197 C 10.481,15.1497 10.56,14.9589 10.56,14.76 10.56,14.5611 10.481,14.3703 10.3403,14.2297 10.1997,14.089 10.0089,14.01 9.81002,14.01 H 5.57001 C 5.47115,14.0086 5.37302,14.0271 5.28142,14.0643 5.18982,14.1016 5.1066,14.1568 5.03669,14.2267 4.96677,14.2966 4.91158,14.3798 4.87436,14.4714 4.83715,14.563 4.81867,14.6611 4.82001,14.76 V 19 c 0,0.1989 0.07902,0.3897 0.21967,0.5303 0.14066,0.1407 0.33142,0.2197 0.53033,0.2197 0.19892,0 0.38968,-0.079 0.53033,-0.2197 C 6.241,19.3897 6.32001,19.1989 6.32001,19 v -2.43 l 0.84,0.84 c 0.869,0.8764 1.9476,1.516 3.13339,1.8583 1.1857,0.3422 2.4393,0.3756 3.6416,0.0971 1.2024,-0.2785 2.3135,-0.8598 3.228,-1.6886 0.9145,-0.8288 1.6019,-1.8776 1.997,-3.0468 0.0326,-0.0938 0.0461,-0.1932 0.0395,-0.2923 -0.0066,-0.0991 -0.0331,-0.1959 -0.0779,-0.2845 -0.0448,-0.0887 -0.107,-0.1674 -0.1829,-0.2315 C 18.8629,13.7576 18.7749,13.7094 18.68,13.68 Z"
       fill="#ffe345"
       id="path4" /></g></g></svg>
